<svg xmlns="http://www.w3.org/2000/svg" width="400" height="400" viewBox="0 0 400 400">
  <defs>
    <linearGradient id="bg" x1="0%" y1="0%" x2="100%" y2="100%">
      <stop offset="0%" style="stop-color:#1e3a5f"/>
      <stop offset="100%" style="stop-color:#0f172a"/>
    </linearGradient>
  </defs>
  <rect width="400" height="400" fill="url(#bg)" rx="12"/>
  <!-- Main cylinder body -->
  <ellipse cx="80" cy="200" rx="30" ry="80" fill="#94a3b8"/>
  <rect x="80" y="120" width="220" height="160" fill="#cbd5e1"/>
  <ellipse cx="300" cy="200" rx="30" ry="80" fill="#94a3b8"/>
  <!-- Door -->
  <ellipse cx="80" cy="200" rx="25" ry="70" fill="#64748b"/>
  <circle cx="80" cy="200" r="15" fill="#475569"/>
  <!-- Bolts around door -->
  <circle cx="80" cy="140" r="5" fill="#1e293b"/>
  <circle cx="80" cy="260" r="5" fill="#1e293b"/>
  <circle cx="55" cy="170" r="5" fill="#1e293b"/>
  <circle cx="55" cy="230" r="5" fill="#1e293b"/>
  <circle cx="105" cy="170" r="5" fill="#1e293b"/>
  <circle cx="105" cy="230" r="5" fill="#1e293b"/>
  <!-- Pressure gauge -->
  <circle cx="150" cy="140" r="20" fill="#1e293b"/>
  <circle cx="150" cy="140" r="15" fill="white"/>
  <line x1="150" y1="140" x2="160" y2="135" stroke="#ef4444" stroke-width="2"/>
  <!-- Temperature display -->
  <rect x="190" y="125" width="50" height="25" fill="#1e293b" rx="3"/>
  <text x="215" y="143" text-anchor="middle" fill="#22d3ee" font-family="monospace" font-size="12">200°C</text>
  <!-- Control panel -->
  <rect x="260" y="125" width="30" height="40" fill="#334155" rx="3"/>
  <circle cx="275" cy="140" r="5" fill="#22c55e"/>
  <circle cx="275" cy="155" r="5" fill="#fbbf24"/>
  <!-- Support legs -->
  <rect x="100" y="280" width="20" height="60" fill="#475569"/>
  <rect x="180" y="280" width="20" height="60" fill="#475569"/>
  <rect x="260" y="280" width="20" height="60" fill="#475569"/>
  <!-- Base -->
  <rect x="80" y="335" width="220" height="15" fill="#334155"/>
  <text x="200" y="380" text-anchor="middle" fill="white" font-family="Arial, sans-serif" font-size="14" font-weight="bold">FUSELAGE AUTOCLAVE</text>
</svg>
