<svg xmlns="http://www.w3.org/2000/svg" width="400" height="400" viewBox="0 0 400 400">
  <defs>
    <linearGradient id="bg" x1="0%" y1="0%" x2="100%" y2="100%">
      <stop offset="0%" style="stop-color:#1e3a5f"/>
      <stop offset="100%" style="stop-color:#0f172a"/>
    </linearGradient>
  </defs>
  <rect width="400" height="400" fill="url(#bg)" rx="12"/>
  <!-- Main frame -->
  <rect x="50" y="300" width="300" height="15" fill="#475569"/>
  <rect x="70" y="100" width="15" height="200" fill="#64748b"/>
  <rect x="315" y="100" width="15" height="200" fill="#64748b"/>
  <rect x="50" y="90" width="300" height="15" fill="#475569"/>
  <!-- Cross beams -->
  <rect x="70" y="150" width="260" height="8" fill="#94a3b8"/>
  <rect x="70" y="220" width="260" height="8" fill="#94a3b8"/>
  <!-- Wing shape being assembled -->
  <path d="M100 180 L300 160 L320 200 L300 240 L100 220 Z" fill="#e2e8f0" stroke="#94a3b8" stroke-width="2"/>
  <!-- Wing ribs -->
  <line x1="140" y1="175" x2="140" y2="225" stroke="#64748b" stroke-width="3"/>
  <line x1="180" y1="172" x2="180" y2="228" stroke="#64748b" stroke-width="3"/>
  <line x1="220" y1="168" x2="220" y2="232" stroke="#64748b" stroke-width="3"/>
  <line x1="260" y1="165" x2="260" y2="235" stroke="#64748b" stroke-width="3"/>
  <!-- Clamps -->
  <circle cx="100" cy="180" r="10" fill="#ef4444"/>
  <circle cx="100" cy="220" r="10" fill="#ef4444"/>
  <circle cx="300" cy="160" r="10" fill="#22c55e"/>
  <circle cx="300" cy="240" r="10" fill="#22c55e"/>
  <!-- Precision indicators -->
  <rect x="150" y="60" width="100" height="25" fill="#334155" rx="3"/>
  <text x="200" y="78" text-anchor="middle" fill="#22d3ee" font-family="monospace" font-size="12">±0.001"</text>
  <text x="200" y="380" text-anchor="middle" fill="white" font-family="Arial, sans-serif" font-size="14" font-weight="bold">WING ASSEMBLY JIG</text>
</svg>
